<svg xmlns="http://www.w3.org/2000/svg" viewBox="0 0 18 16"><defs><style>.cls-1{fill:#231f20}</style></defs><g id="Layer_2" data-name="Layer 2"><g id="Layer_1-2" data-name="Layer 1"><g id="_Group_" data-name="&lt;Group&gt;"><path id="_Path_" data-name="&lt;Path&gt;" class="cls-1" d="M17 3H9.5a.5.5 0 0 0 0 1H17v11H1V4h2.53a.5.5 0 1 0 0-1H1a1 1 0 0 0-1 1v11a1 1 0 0 0 1 1h16a1 1 0 0 0 1-1V4a1 1 0 0 0-1-1z"/><path id="_Path_2" data-name="&lt;Path&gt;" class="cls-1" d="M5.5 6a.5.5 0 0 0 0 1h2a.5.5 0 0 0 0-1H7V1h.5A.5.5 0 0 0 8 .5a.5.5 0 0 0-.5-.5h-2a.5.5 0 0 0-.5.5.5.5 0 0 0 .5.5H6v5z"/><path id="_Path_3" data-name="&lt;Path&gt;" class="cls-1" d="M13.85 13.86L16 11.77a.48.48 0 0 0 0-.7.49.49 0 0 0-.7 0l-2.13 2.08a.5.5 0 0 0 .35.86.52.52 0 0 0 .33-.15z"/></g></g></g></svg>