<svg xmlns="http://www.w3.org/2000/svg" viewBox="0 0 15 19"><defs><style>.cls-1{fill:#231f20}</style></defs><g id="Layer_2" data-name="Layer 2"><g id="Layer_1-2" data-name="Layer 1"><g id="_Group_" data-name="&lt;Group&gt;"><path id="_Compound_Path_" data-name="&lt;Compound Path&gt;" class="cls-1" d="M10.85.19L10.66 0H1a1 1 0 0 0-1 1v17a1 1 0 0 0 1 1h13a1 1 0 0 0 1-1V4.22zM11 1.72L13.38 4H11.5a.5.5 0 0 1-.5-.5zm3 16.78V18H1V1h9v2.53A1.44 1.44 0 0 0 11.46 5H14v13z"/><path id="_Path_" data-name="&lt;Path&gt;" class="cls-1" d="M11.5 14h-8a.5.5 0 0 0 0 1h8a.5.5 0 0 0 0-1z"/><path id="_Path_2" data-name="&lt;Path&gt;" class="cls-1" d="M11.5 10h-8a.5.5 0 0 0 0 1h8a.5.5 0 0 0 0-1z"/><path id="_Compound_Path_2" data-name="&lt;Compound Path&gt;" class="cls-1" d="M3.8 8h3.4a.8.8 0 0 0 .8-.8V3.8a.8.8 0 0 0-.8-.8H3.8a.8.8 0 0 0-.8.8v3.4a.8.8 0 0 0 .8.8zM4 4h3v3H4z"/></g></g></g></svg>