<?xml version="1.0" encoding="iso-8859-1"?>
<!-- Generator: Adobe Illustrator 17.1.0, SVG Export Plug-In . SVG Version: 6.00 Build 0)  -->
<!DOCTYPE svg PUBLIC "-//W3C//DTD SVG 1.1//EN" "http://www.w3.org/Graphics/SVG/1.1/DTD/svg11.dtd">
<svg version="1.1" id="Capa_1" xmlns="http://www.w3.org/2000/svg" xmlns:xlink="http://www.w3.org/1999/xlink" x="0px" y="0px"
	 viewBox="0 0 296 296" style="enable-background:new 0 0 296 296;" xml:space="preserve">
<g>
	<path d="M78.336,182.382c0.496,0.19,1.329,0.404,1.329,0.607V18.688c0-1.037,2.145-2.688,3.652-2.688h100.348v28h28v140.743
		c2-0.875,3.845-1.664,5.663-2.36c1.844-0.706,3.636-1.473,5.451-2.214c1.676-0.684,3.886-1.358,4.886-1.994V33.15L195.892,0H83.317
		C73.025,0,63.665,8.732,63.665,18.688v158.025c3,1,6.012,2.212,9.057,3.456C74.536,180.91,76.496,181.677,78.336,182.382z"/>
	<path d="M116.97,209h62.06c5.927-6.066,12.317-11.483,18.834-16h-99.73C104.652,197.517,111.043,202.934,116.97,209z"/>
	<path d="M287.968,152.054c-4.429,0-9.703,4.288-12.503,16.922c-5.43,24.518-26.857,44.207-44.068,47.877
		c-1.263,0.27-2.159,0.396-2.74,0.396c-6.45,0,25.788-15.495,22.731-22.576c-1.371-3.178-3.696-4.38-6.726-4.38
		c-5.384,0-12.994,3.794-21.442,7.031c-13.699,5.247-27.188,16.025-37.097,27.308C174.976,237.326,161.331,255,156.292,296h47.925
		c0.856-11,5.244-17.089,8.956-20.55c8.041-7.499,55.01-29.068,65.641-45.169c10.627-16.102,16.35-57.629,16.641-70.277
		C295.55,155.787,292.133,152.054,287.968,152.054z"/>
	<path d="M139.708,296c-5.039-41-18.685-58.674-29.831-71.369c-9.908-11.283-23.397-22.185-37.097-27.432
		c-8.448-3.237-16.059-6.969-21.442-6.969c-3.029,0-5.354,1.232-6.726,4.41c-3.057,7.081,29.182,22.592,22.731,22.592
		c-0.581,0-1.478-0.118-2.74-0.388c-17.211-3.67-38.639-23.355-44.068-47.873c-2.8-12.634-8.074-16.921-12.502-16.92
		c-4.166,0.001-7.583,3.797-7.487,8.013c0.291,12.648,6.014,54.238,16.641,70.34c10.631,16.102,57.6,37.547,65.641,45.046
		c3.712,3.461,8.1,9.55,8.956,20.55H139.708z"/>
	<path d="M187.333,83.935c-0.856-0.71-2.094-1.737-2.64-2.347c-0.068-0.855,0.083-2.575,0.187-3.76
		c0.4-4.561,0.949-10.805-3.645-15.399c-3.906-3.906-9.124-3.906-10.839-3.906c-1.582,0-3.096,0.133-4.559,0.262
		c-1.175,0.103-2.284,0.2-3.172,0.2c-0.262,0-0.456-0.009-0.595-0.02c-0.61-0.548-1.633-1.781-2.341-2.634
		c-2.809-3.385-7.052-8.498-13.731-8.498c-6.68,0-10.924,5.113-13.732,8.497c-0.708,0.854-1.731,2.087-2.341,2.635
		c-0.14,0.011-0.334,0.02-0.596,0.02c-0.888,0-1.998-0.098-3.173-0.201c-1.463-0.128-2.976-0.261-4.557-0.261
		c-1.715,0-6.934,0-10.839,3.906c-4.595,4.593-4.047,10.839-3.646,15.399c0.104,1.186,0.255,2.906,0.187,3.76
		c-0.545,0.609-1.783,1.639-2.64,2.35c-3.384,2.808-8.498,7.055-8.498,13.734c0,6.68,5.113,10.93,8.497,13.737
		c0.856,0.711,2.096,1.75,2.641,2.36c0.068,0.854-0.083,2.598-0.187,3.783c-0.4,4.561-0.948,10.852,3.646,15.446
		c3.892,3.891,9.084,4.001,10.819,4.001c0.006,0,0.013,0,0.019,0c1.582,0,2.928-0.227,4.391-0.356
		c1.037-0.091,2.673-0.243,2.673-0.28V164l17.209-9.125l16.833,8.75l0.188-27.27c0.84,0.016,1.861,0.101,2.922,0.193
		c1.463,0.128,2.986,0.261,4.568,0.261c1.715,0,6.939,0,10.846-3.906c4.593-4.593,4.048-10.837,3.647-15.397
		c-0.104-1.187-0.254-2.907-0.185-3.762c0.546-0.609,1.785-1.637,2.641-2.348c3.383-2.809,8.496-7.052,8.496-13.731
		S190.718,86.743,187.333,83.935z M145.998,123l-5.864-0.689c-11.162-2.647-19.469-12.672-19.469-24.645
		c0-13.99,11.342-25.333,25.334-25.333c13.99,0,25.332,11.343,25.332,25.333C171.331,111.658,159.989,123,145.998,123L145.998,123z"
		/>
</g>
<g>
</g>
<g>
</g>
<g>
</g>
<g>
</g>
<g>
</g>
<g>
</g>
<g>
</g>
<g>
</g>
<g>
</g>
<g>
</g>
<g>
</g>
<g>
</g>
<g>
</g>
<g>
</g>
<g>
</g>
</svg>
