<?xml version="1.0" encoding="iso-8859-1"?>
<!-- Generator: Adobe Illustrator 19.0.0, SVG Export Plug-In . SVG Version: 6.00 Build 0)  -->
<svg version="1.1" id="Capa_1" xmlns="http://www.w3.org/2000/svg" xmlns:xlink="http://www.w3.org/1999/xlink" x="0px" y="0px"
	 viewBox="0 0 512 512" style="enable-background:new 0 0 512 512;" xml:space="preserve">
<path style="fill:#FF5368;" d="M351.1,56.01c-16.321-0.037-46.608,0.041-75.919,0.064c-16.432,0.013-32.186,6.546-43.805,18.166
	L27.014,278.602c-26.019,26.019-26.019,68.203,0,94.222l63.662,63.662c26.019,26.019,68.203,26.019,94.222,0L389.26,232.124
	c11.619-11.619,18.153-27.373,18.166-43.805c0.023-29.312,0.102-59.598,0.064-75.919c-0.035-15.385-6.856-29.335-16.948-39.442
	C380.435,62.866,366.485,56.045,351.1,56.01z M369.711,112.396c0,10.26-8.347,18.607-18.607,18.607s-18.607-8.347-18.607-18.607
	s8.347-18.607,18.607-18.607S369.711,102.136,369.711,112.396z"/>
<path style="fill:#C5324F;" d="M390.542,72.957c-7.041-7.03-15.951-12.465-25.909-15.132c-6.717,11.483-5.161,26.474,4.68,36.33
	c5.182,5.189,8.162,11.865,8.177,18.313c0.024,10.399,0.001,26.21-0.026,44.518c-0.015,10.1-0.03,20.768-0.039,31.309
	c-0.007,8.543-3.338,16.575-9.379,22.616L163.685,415.273c-14.279,14.279-37.516,14.279-51.795,0l-63.662-63.662
	c-10.075-10.076-25.528-11.479-37.111-4.226c3.189,9.293,8.482,18.023,15.897,25.438l63.662,63.663
	c26.019,26.019,68.203,26.019,94.221,0L389.26,232.124c11.619-11.62,18.153-27.373,18.166-43.805
	c0.023-29.312,0.102-59.598,0.064-75.919C407.455,97.015,400.634,83.065,390.542,72.957z"/>
<path d="M86.688,330.319c-11.695,11.694-11.697,30.726-0.001,42.421c11.698,11.695,30.729,11.695,42.425,0s11.697-30.726,0-42.422
	C117.415,318.623,98.384,318.624,86.688,330.319z M118.505,362.134c-5.848,5.848-15.364,5.848-21.212,0
	c-5.846-5.848-5.848-15.361,0.001-21.21c5.847-5.847,15.363-5.847,21.211-0.001C124.353,346.771,124.353,356.287,118.505,362.134z"
	/>
<path d="M153.49,274.125c-2.928-2.928-7.676-2.928-10.604,0c-2.929,2.929-2.929,7.677-0.001,10.604l19.198,19.196
	c4.035,4.035,3.987,10.648-0.106,14.741s-10.707,4.142-14.742,0.106l-19.197-19.197c-2.928-2.928-7.678-2.926-10.606,0.002
	s-2.928,7.676,0,10.604l19.197,19.197c9.885,9.883,26.012,9.836,35.955-0.106c9.942-9.941,9.99-26.067,0.106-35.952L153.49,274.125z
	"/>
<path d="M184.498,253.726l6.717-6.717c2.929-2.929,2.93-7.676-0.001-10.606c-2.928-2.928-7.676-2.928-10.605,0.001l-24.04,24.038
	c-2.929,2.929-2.929,7.677-0.001,10.604c2.931,2.931,7.678,2.93,10.607,0.001l6.717-6.717l26.514,26.513
	c2.93,2.93,7.677,2.929,10.606,0c2.928-2.928,2.929-7.675-0.001-10.604L184.498,253.726z"/>
<path d="M242.41,238.238l-10.96,10.959l-26.515-26.514c-2.928-2.928-7.676-2.928-10.604,0c-2.929,2.929-2.929,7.677-0.001,10.604
	l31.819,31.816c2.93,2.93,7.677,2.929,10.605,0.001l16.263-16.262c2.929-2.929,2.93-7.676,0-10.605
	C250.086,235.31,245.339,235.309,242.41,238.238z"/>
<path d="M273.001,207.649l-10.96,10.958l-5.303-5.301l6.717-6.717c2.93-2.929,2.928-7.676-0.002-10.605
	c-2.928-2.93-7.675-2.929-10.604,0l-6.717,6.717l-5.303-5.303l10.96-10.959c2.93-2.93,2.93-7.676-0.002-10.605
	c-2.928-2.928-7.674-2.93-10.604,0l-16.263,16.262c-2.928,2.928-2.928,7.676,0,10.604l31.819,31.816
	c2.929,2.93,7.678,2.929,10.606,0l16.263-16.261c2.928-2.929,2.928-7.675-0.002-10.604
	C280.678,204.72,275.929,204.72,273.001,207.649z"/>
<path d="M282.725,155.506l6.719-6.718c2.928-2.929,2.928-7.675-0.002-10.606c-2.928-2.928-7.676-2.928-10.604,0.001l-24.04,24.038
	c-2.93,2.93-2.93,7.678-0.002,10.605c2.931,2.93,7.678,2.93,10.608,0l6.717-6.717l26.514,26.514c2.93,2.93,7.678,2.928,10.606,0
	c2.928-2.928,2.93-7.676,0-10.605L282.725,155.506z"/>
<path d="M500.239,202.46c-7.541-18.33-18.362-34.91-32.173-49.26c-6.79-7.07-14.29-13.53-22.271-19.221
	c-8.041-5.72-16.661-10.71-25.612-14.819c-1.719-0.789-3.452-1.534-5.192-2.258c-0.002-1.597-0.004-3.11-0.007-4.52
	c-0.038-16.518-6.836-32.4-19.15-44.732c-12.325-12.305-28.209-19.103-44.728-19.141h-0.001c-10.47-0.022-26.314,0-44.66,0.025
	c-10.092,0.015-20.752,0.03-31.286,0.039c-18.548,0.015-35.987,7.246-49.105,20.362L21.677,273.299
	c-28.903,28.901-28.903,75.928,0,104.829l63.666,63.662c14.001,14,32.617,21.71,52.418,21.71s38.417-7.71,52.418-21.71
	l204.376-204.362c13.117-13.117,20.349-30.556,20.364-49.103c0.009-10.533,0.023-21.192,0.039-31.284
	c0.012-8.601,0.024-16.641,0.03-23.846c48.678,22.678,82.018,71.965,82.011,129.075c-0.01,38.021-14.812,73.78-41.703,100.67
	c-26.902,26.891-62.655,41.7-100.677,41.7h-0.05c-25.872,0-52.894-7.9-76.066-22.24c-1.19-0.739-2.55-1.12-3.94-1.12
	c-2.62,0-5.011,1.33-6.391,3.551c-2.17,3.52-1.08,8.149,2.441,10.33c12.501,7.729,25.891,13.75,39.812,17.909
	c14.581,4.36,29.452,6.57,44.193,6.57c21.242,0,41.852-4.16,61.254-12.37c9.331-3.939,18.322-8.819,26.742-14.51
	c8.331-5.63,16.161-12.09,23.292-19.21c7.121-7.12,13.581-14.96,19.211-23.29c5.69-8.42,10.57-17.41,14.511-26.73
	C507.84,304.12,512,283.519,512,262.269C512,241.569,508.04,221.439,500.239,202.46z M399.957,157.019
	c-0.015,10.095-0.03,20.757-0.039,31.294c-0.012,14.545-5.683,28.221-15.971,38.507L179.572,431.182
	c-23.054,23.053-60.567,23.053-83.621,0L32.285,367.52c-11.168-11.167-17.319-26.015-17.319-41.808
	c0-15.792,6.15-30.64,17.318-41.807L236.661,79.544c10.288-10.287,23.964-15.959,38.51-15.97
	c10.538-0.009,21.201-0.024,31.296-0.039c12.941-0.019,24.635-0.035,34.069-0.035c3.929,0,7.465,0.003,10.536,0.01
	c12.529,0.028,24.662,5.269,34.156,14.748c9.262,9.275,14.462,21.06,14.731,33.271c-7.666-2.304-15.495-4.022-23.458-5.127
	c-2.718-11.514-13.074-20.112-25.406-20.112c-14.396,0-26.108,11.712-26.108,26.107s11.712,26.106,26.108,26.106
	c11.223,0,20.813-7.118,24.497-17.075c8.406,1.229,16.56,3.187,24.402,5.801C399.988,135.831,399.973,145.965,399.957,157.019z
	 M357.959,120.029h1.182c-2.026,2.134-4.88,3.474-8.048,3.474c-6.124,0-11.107-4.982-11.107-11.106
	c0-6.125,4.983-11.107,11.107-11.107c3.297,0,6.255,1.452,8.291,3.74h-1.424c-4.13,0-7.5,3.36-7.5,7.5
	C350.459,116.66,353.829,120.029,357.959,120.029z"/>
<g>
</g>
<g>
</g>
<g>
</g>
<g>
</g>
<g>
</g>
<g>
</g>
<g>
</g>
<g>
</g>
<g>
</g>
<g>
</g>
<g>
</g>
<g>
</g>
<g>
</g>
<g>
</g>
<g>
</g>
</svg>
