<svg id="Layer_1" enable-background="new 0 0 256 256" height="512" viewBox="0 0 256 256" width="512" xmlns="http://www.w3.org/2000/svg"><g><path d="m175.756 122.514c0 38.924-16.937 73.881-43.825 97.901 52.299-2.067 94.069-45.096 94.069-97.901s-41.77-95.834-94.069-97.901c26.888 24.02 43.825 58.977 43.825 97.901z" fill="#63bce7"/><path d="m80.244 122.514c0-38.924 16.937-73.881 43.825-97.901-52.299 2.066-94.069 45.095-94.069 97.901s41.77 95.834 94.069 97.901c-26.888-24.021-43.825-58.978-43.825-97.901z" fill="#63bce7"/><g><path d="m36.5 122.514c0-50.397 38.047-91.887 86.982-97.363.197-.178.389-.361.586-.538-52.298 2.066-94.068 45.095-94.068 97.901 0 52.805 41.77 95.834 94.069 97.9-.198-.177-.39-.36-.586-.538-48.936-5.475-86.983-46.965-86.983-97.362z" fill="#6377e7"/></g><g><path d="m219.5 122.514c0-50.397-38.047-91.887-86.982-97.363-.197-.178-.389-.361-.586-.538 52.298 2.066 94.068 45.095 94.068 97.901 0 52.805-41.77 95.834-94.069 97.9.198-.177.39-.36.586-.538 48.936-5.475 86.983-46.965 86.983-97.362z" fill="#63e2e7"/></g><path d="m124.069 24.613c-26.888 24.02-43.825 58.977-43.825 97.901s16.937 73.881 43.825 97.901c1.306.052 2.613.099 3.931.099 1.319 0 2.625-.048 3.931-.099 26.888-24.02 43.825-58.977 43.825-97.901s-16.937-73.881-43.825-97.901c-1.306-.052-2.613-.099-3.931-.099s-2.625.047-3.931.099z" fill="#63bce7"/><g><path d="m124.61 55.917c-6.476 4.206-21.622 13.017-40.119 16.924-2.914.615-5.027 3.139-5.027 6.117v49.956c0 5.252.785 10.474 2.33 15.494 3.358 10.913 10.17 20.44 19.411 27.146l24.591 17.846c1.315.954 3.094.954 4.409 0l24.591-17.846c9.241-6.706 16.053-16.233 19.411-27.146 1.545-5.02 2.33-10.242 2.33-15.494v-49.955c0-2.978-2.114-5.502-5.027-6.117-18.497-3.907-33.643-12.719-40.119-16.924-2.068-1.343-4.714-1.343-6.781-.001z" fill="#cecece"/><path d="m146.441 92.339-28.687 32.747-9.402-7.595c-4.187-3.379-10.321-2.735-13.703 1.437-3.388 4.164-2.746 10.281 1.434 13.661l23.998 19.375 41.039-46.844c3.54-4.04 3.124-10.178-.931-13.707-4.048-3.524-10.212-3.114-13.748.926z" fill="#f8af23"/></g><g fill="#3f3679"><path d="m95.141 133.755 23.998 19.375c.277.224.61.333.942.333.418 0 .833-.174 1.129-.512l41.039-46.844c1.977-2.255 2.954-5.143 2.751-8.131-.203-2.991-1.562-5.724-3.826-7.694-4.671-4.067-11.786-3.589-15.86 1.068l-27.738 31.662-8.281-6.689c-4.821-3.894-11.914-3.148-15.809 1.658-1.89 2.323-2.76 5.242-2.45 8.22.311 2.983 1.768 5.664 4.105 7.554zm.673-13.883c1.625-2.004 4.008-3.045 6.412-3.045 1.823 0 3.658.599 5.184 1.83l9.402 7.595c.626.506 1.54.427 2.071-.179l28.688-32.746s0 0 0-.001c2.987-3.414 8.206-3.767 11.633-.781 1.659 1.443 2.654 3.444 2.803 5.634.148 2.187-.567 4.301-2.015 5.952l-40.09 45.76-22.875-18.469c-1.711-1.384-2.779-3.349-3.007-5.532-.228-2.179.409-4.315 1.794-6.018z"/><path d="m27.323 229.986h-18.003c-.829 0-1.5.672-1.5 1.5s.671 1.5 1.5 1.5h18.003c.829 0 1.5-.672 1.5-1.5s-.671-1.5-1.5-1.5z"/><path d="m246.68 229.986h-18.003c-.829 0-1.5.672-1.5 1.5s.671 1.5 1.5 1.5h18.003c.829 0 1.5-.672 1.5-1.5s-.671-1.5-1.5-1.5z"/><path d="m218.479 229.986h-180.958c-.829 0-1.5.672-1.5 1.5s.671 1.5 1.5 1.5h180.959c.829 0 1.5-.672 1.5-1.5s-.672-1.5-1.501-1.5z"/><path d="m9.32 222.014h237.36c.829 0 1.5-.672 1.5-1.5s-.671-1.5-1.5-1.5h-94.423c17.924-4.477 34.303-13.893 47.401-27.481 17.954-18.627 27.842-43.139 27.842-69.019s-9.888-50.392-27.842-69.019c-17.904-18.575-41.935-29.364-67.667-30.381-2.68-.105-5.302-.105-7.981 0-25.733 1.017-49.764 11.806-67.668 30.381-17.954 18.627-27.842 43.139-27.842 69.019s9.888 50.392 27.842 69.019c13.098 13.588 29.477 23.004 47.401 27.481h-94.423c-.829 0-1.5.672-1.5 1.5s.671 1.5 1.5 1.5zm116.107-164.839c.781-.507 1.677-.761 2.573-.761s1.792.254 2.573.761c7.291 4.734 22.263 13.255 40.625 17.134 2.26.478 3.838 2.39 3.838 4.65v49.956c0 5.107-.761 10.172-2.263 15.053-3.242 10.534-9.939 19.9-18.858 26.373l-24.591 17.847c-.792.574-1.855.574-2.647 0l-24.591-17.847c-8.919-6.473-15.616-15.839-18.858-26.373-1.502-4.881-2.263-9.945-2.263-15.053v-49.956c0-2.261 1.578-4.173 3.837-4.65 18.363-3.879 33.335-12.4 40.625-17.134zm-38.025 102.247c3.504 5.137 7.872 9.683 12.921 13.347l24.591 17.847c.923.67 2.004 1.005 3.085 1.005s2.163-.335 3.085-1.005l24.591-17.847c5.049-3.664 9.417-8.21 12.921-13.347h.294c-6.77 22.739-19.801 43.502-37.564 59.504-2.238.076-4.419.076-6.656 0-17.766-16.007-30.794-36.765-37.563-59.504zm110.096 30.028c-16.394 17.008-38.082 27.285-61.455 29.211 17.004-16.205 29.453-36.79 35.975-59.239h45.165c-4.567 11.027-11.186 21.211-19.685 30.028zm20.856-33.028h-45.487c.843-3.184 1.576-6.4 2.177-9.646 0-.001.018-.146.022-.188.199-.576.395-1.154.574-1.737 1.59-5.167 2.396-10.528 2.396-15.936v-40.31h40.318c4.02 10.716 6.146 22.162 6.146 33.908s-2.126 23.193-6.146 33.909zm-20.856-100.845c8.499 8.818 15.119 19.001 19.685 30.028h-39.146v-6.646c0-3.692-2.557-6.812-6.217-7.586-1.81-.382-3.578-.826-5.32-1.296-.002-.005-.003-.01-.005-.015-7.032-16.337-17.516-31.365-30.452-43.695 23.372 1.924 45.061 12.202 61.455 29.21zm-66.165-29.475c13.243 11.932 24.051 26.706 31.393 42.884-14.361-4.456-25.76-11.236-30.52-14.327-2.556-1.66-5.857-1.66-8.413 0-4.76 3.091-16.16 9.872-30.523 14.327 7.345-16.18 18.15-30.951 31.396-42.885 2.242-.076 4.426-.076 6.667.001zm-72.831 29.475c16.394-17.008 38.083-27.286 61.456-29.211-12.941 12.335-23.42 27.363-30.454 43.71-1.743.471-3.512.914-5.323 1.297-3.66.774-6.217 3.894-6.217 7.586v6.646h-39.146c4.566-11.027 11.185-21.21 19.684-30.028zm-20.856 33.028h40.318v40.31c0 5.407.806 10.769 2.396 15.936.174.566.364 1.126.557 1.686.003.017.001.033.004.05.606 3.31 1.347 6.59 2.206 9.836h-45.481c-4.02-10.716-6.146-22.162-6.146-33.908s2.126-23.194 6.146-33.91zm1.172 70.817h45.162c6.513 22.43 18.962 43.023 35.978 59.239-23.373-1.926-45.062-12.203-61.455-29.211-8.5-8.817-15.119-19.001-19.685-30.028z"/></g></g></svg>