<svg id="Capa_1" enable-background="new 0 0 512 512" height="512" viewBox="0 0 512 512" width="512" xmlns="http://www.w3.org/2000/svg"><g><g><g><path d="m305.572 192.112c-11.082-12.234-23.931-30.769-23.931-61.537 0-50.426 10.256-64.101 10.256-88.887 0-18.882-17.016-34.188-35.897-34.188s-35.897 15.306-35.897 34.187c0 24.786 10.256 38.461 10.256 88.887 0 30.769-12.849 49.304-23.931 61.537-15.051 16.616-34.187 32.478-34.187 82.904 0 46.153 37.606 152.989 37.606 152.989h92.306s37.606-106.836 37.606-152.989c0-50.425-19.136-66.287-34.187-82.903z" fill="#c9e2e7"/></g><g><path d="m177.748 234.846h156.503c-5.061-15.594-12.947-25.54-20.796-34.187h-114.91c-7.85 8.648-15.735 18.594-20.797 34.187z" fill="#fa4954"/></g><g><path d="m182.109 223.983c-1.604 3.305-3.074 6.9-4.361 10.863h156.503c-1.286-3.963-2.756-7.558-4.361-10.863-22.102-11.609-47.241-18.191-73.891-18.191s-51.788 6.583-73.89 18.191z" fill="#fa2a3b"/></g></g><g><g><path d="m446.096 245.929c-5.702-15.491-10.687-37.486.821-66.022 18.86-46.767 33.486-55.613 42.756-78.6 7.062-17.511-2.994-38.07-20.505-45.132s-39.016.77-46.078 18.281c-9.27 22.987-4.873 39.505-23.733 86.272-11.508 28.536-30.357 40.92-45.21 48.121-20.173 9.78-43.853 17.335-62.713 64.101-17.262 42.803-22.342 155.951-22.342 155.951l85.607 34.523s74.834-85.017 92.096-127.821c18.86-46.766 7.045-68.635-.699-89.674z" fill="#eff3f5"/></g><g><path d="m415.445 365.238c0-62.123-35.715-116.054-87.688-142.358-12.646 8.818-25.307 22.753-36.323 50.07-17.262 42.803-22.342 155.951-22.342 155.951l85.607 34.523s31.851-36.187 58.788-73.23c1.284-8.133 1.958-16.467 1.958-24.956z" fill="#c9e2e7"/></g><g><path d="m311.566 237.755 145.145 58.533c1.138-16.355-2.455-28.528-6.5-39.484l-106.571-42.978c-10.515 5.085-21.548 11.36-32.074 23.929z" fill="#fb636f"/></g><g><path d="m327.76 222.881c-5.439 3.793-10.881 8.531-16.193 14.874l68.702 27.706c-14.214-17.667-32.106-32.253-52.509-42.58z" fill="#fa4954"/></g></g><g><g><path d="m65.904 245.929c5.702-15.491 10.687-37.486-.821-66.022-18.86-46.767-33.486-55.613-42.756-78.6-7.062-17.511 2.994-38.07 20.505-45.132s39.016.77 46.078 18.281c9.27 22.987 4.873 39.505 23.733 86.272 11.508 28.536 30.357 40.92 45.21 48.121 20.173 9.78 43.853 17.335 62.713 64.101 17.262 42.803 22.342 155.951 22.342 155.951l-85.607 34.523s-74.834-85.017-92.096-127.821c-18.86-46.766-7.045-68.635.699-89.674z" fill="#eff3f5"/></g><g><path d="m96.555 365.238c0-62.123 35.715-116.054 87.688-142.358 12.646 8.818 25.307 22.753 36.323 50.07 17.262 42.803 22.342 155.951 22.342 155.951l-85.607 34.523s-31.851-36.187-58.788-73.23c-1.284-8.133-1.958-16.467-1.958-24.956z" fill="#c9e2e7"/></g><g><path d="m200.434 237.755-145.145 58.534c-1.138-16.355 2.455-28.528 6.5-39.484l106.571-42.978c10.515 5.084 21.548 11.359 32.074 23.928z" fill="#fb636f"/></g><g><path d="m184.24 222.881c5.439 3.793 10.881 8.531 16.193 14.874l-68.702 27.706c14.214-17.667 32.106-32.253 52.509-42.58z" fill="#fa4954"/></g></g><g><g><circle cx="256" cy="365.238" fill="#97e4f9" r="139.262"/></g><g><path d="m341.708 255.471c18.479 23.633 29.495 53.383 29.495 85.708 0 76.912-62.35 139.262-139.262 139.262-32.325 0-62.075-11.016-85.708-29.495 25.489 32.598 65.179 53.554 109.767 53.554 76.912 0 139.262-62.35 139.262-139.262 0-44.588-20.956-84.278-53.554-109.767z" fill="#0acefa"/></g><g><circle cx="235.817" cy="277.442" fill="#434343" r="17.155"/></g><g><circle cx="180.314" cy="314.781" fill="#434343" r="17.155"/></g><g><circle cx="236.826" cy="341.018" fill="#434343" r="17.155"/></g></g><g><path d="m495.435 71.664c-4.722-10.153-13.273-18.332-23.457-22.438-10.187-4.114-22.022-4.158-32.47-.119-10.91 4.216-19.211 12.224-23.374 22.547-4.111 10.192-5.686 18.99-7.508 29.178-1.922 10.74-4.1 22.913-9.948 40.219-1.326 3.924.78 8.18 4.705 9.506s8.181-.78 9.506-4.705c6.206-18.366 8.588-31.68 10.502-42.379 1.745-9.753 3.124-17.457 6.654-26.209 2.593-6.432 7.874-11.463 14.869-14.167 6.934-2.68 14.751-2.667 21.451.038 6.696 2.7 12.333 8.113 15.468 14.853 3.161 6.798 3.474 14.084.881 20.516-3.529 8.75-7.878 15.252-13.384 23.486-8.014 11.983-17.987 26.896-29.365 55.114-11.459 28.404-7.672 50.891-2.636 66.418l-75.19-30.322c11-5.879 25.06-15.617 36.146-33.648 2.169-3.529 1.067-8.148-2.461-10.317-3.53-2.17-8.148-1.066-10.317 2.461-10.571 17.194-24.059 25.281-34.628 30.405-1.692.82-3.41 1.625-5.148 2.438-4.54 2.126-9.303 4.362-14.17 7.112-5.266-8.226-11.195-14.61-16.561-20.378-1.31-1.409-2.605-2.801-3.872-4.2-10.237-11.3-21.988-27.935-21.988-56.504 0-28.864 3.352-44.881 6.309-59.013 2.12-10.129 3.951-18.877 3.951-29.867 0-22.597-19.875-41.689-43.4-41.689s-43.4 19.092-43.4 41.69c0 10.989 1.831 19.737 3.951 29.867 2.957 14.132 6.309 30.149 6.309 59.013 0 28.57-11.75 45.205-21.989 56.506-1.266 1.397-2.561 2.79-3.871 4.198-5.366 5.768-11.294 12.153-16.561 20.378-4.866-2.75-9.63-4.986-14.17-7.112-1.738-.814-3.456-1.618-5.147-2.438-10.57-5.125-24.058-13.212-34.628-30.406-2.169-3.528-6.788-4.631-10.317-2.461-3.528 2.169-4.63 6.789-2.461 10.317 11.086 18.031 25.146 27.768 36.146 33.648l-75.19 30.322c5.036-15.53 8.823-38.016-2.635-66.417-11.379-28.219-21.352-43.132-29.366-55.115-5.506-8.233-9.855-14.736-13.384-23.485-2.594-6.432-2.281-13.718.88-20.517 3.135-6.739 8.772-12.153 15.472-14.854 6.695-2.704 14.512-2.716 21.447-.037 6.995 2.704 12.275 7.734 14.869 14.167 3.53 8.751 4.909 16.456 6.654 26.208 1.915 10.699 4.297 24.013 10.502 42.379 1.326 3.925 5.586 6.029 9.506 4.705 3.924-1.326 6.03-5.582 4.705-9.506-5.848-17.307-8.026-29.479-9.948-40.219-1.823-10.188-3.397-18.986-7.508-29.177-4.163-10.325-12.464-18.333-23.374-22.548-10.449-4.039-22.283-3.994-32.467.117-10.187 4.107-18.738 12.287-23.46 22.439-4.931 10.603-5.354 22.127-1.191 32.452 4.11 10.188 9.076 17.614 14.827 26.213 8.027 12.002 17.124 25.606 27.923 52.387 10.691 26.5 6.011 46.317.736 60.625-.65 1.769-1.331 3.544-2.019 5.339-7.551 19.706-16.948 44.23 1.403 89.727 12.815 31.759 55.191 84.653 79.28 113.36.002.002.012.002.016.004 26.726 36.488 69.869 60.231 118.46 60.231 48.589 0 91.73-23.741 118.456-60.225.002-.002.012-.002.014-.004 24.089-28.707 66.47-81.606 79.286-113.366 18.35-45.495 8.953-70.02 1.402-89.726-.688-1.795-1.368-3.57-2.021-5.344-5.272-14.303-9.953-34.119.738-60.621 10.799-26.78 19.896-40.384 27.923-52.386 5.75-8.599 10.717-16.026 14.827-26.214 4.164-10.323 3.74-21.848-1.19-32.45zm-170.789 163.279c6.348-5.75 12.848-9.631 19.31-12.902l100.334 40.462c2.392 6.856 4.386 14.142 4.969 22.693zm-86.786-104.373c0-30.417-3.675-47.976-6.627-62.085-2.029-9.698-3.632-17.358-3.632-26.794-.001-14.219 13.27-26.691 28.399-26.691s28.4 12.472 28.4 26.69c0 9.437-1.603 17.096-3.632 26.794-2.953 14.109-6.627 31.669-6.627 62.085 0 30.622 11.922 50.065 22.398 62.589h-81.076c10.475-12.524 22.397-31.967 22.397-62.588zm-35.953 77.589h108.186c3.142 3.59 6.207 7.433 8.995 11.825-3.149 2.493-6.299 5.35-9.422 8.652-16.63-6.556-34.734-10.16-53.665-10.16-18.59 0-36.73 3.461-53.691 10.133-3.115-3.291-6.256-6.139-9.397-8.625 2.787-4.392 5.852-8.235 8.994-11.825zm-134.197 54.344 100.334-40.462c6.462 3.271 12.962 7.152 19.31 12.902l-124.613 50.253c.584-8.551 2.577-15.837 4.969-22.693zm188.29 234.497c-72.654 0-131.762-59.108-131.762-131.762 0-5.176.303-10.39.901-15.497.481-4.114-2.463-7.84-6.577-8.321-4.118-.484-7.84 2.463-8.321 6.577-.665 5.683-1.002 11.484-1.002 17.241 0 10.763 1.175 21.254 3.385 31.364-16.857-22.355-33.614-46.824-40.467-63.807-4.952-12.276-7.668-22.633-8.853-31.651l83.086-33.506c-11.501 12.895-20.679 27.746-27.07 44.044-1.512 3.856.388 8.208 4.245 9.72 3.852 1.511 8.208-.389 9.72-4.245 19.934-50.834 68.103-83.681 122.716-83.681 72.654 0 131.762 59.108 131.762 131.762s-59.109 131.762-131.763 131.762zm143.378-100.404c2.209-10.108 3.384-20.598 3.384-31.359 0-37.473-14.125-71.705-37.32-97.669l83.256 33.575c-1.185 9.018-3.901 19.374-8.853 31.65-6.853 16.983-23.61 41.449-40.467 63.803z"/><path d="m235.817 302.098c13.595 0 24.656-11.061 24.656-24.656s-11.061-24.655-24.656-24.655-24.655 11.061-24.655 24.655c0 13.595 11.06 24.656 24.655 24.656zm0-34.311c5.324 0 9.656 4.332 9.656 9.655 0 5.324-4.332 9.656-9.656 9.656s-9.655-4.332-9.655-9.656 4.331-9.655 9.655-9.655z"/><path d="m180.314 290.125c-13.595 0-24.655 11.061-24.655 24.655 0 13.595 11.061 24.656 24.655 24.656 13.595 0 24.656-11.061 24.656-24.656 0-13.594-11.061-24.655-24.656-24.655zm0 34.311c-5.324 0-9.655-4.332-9.655-9.656s4.332-9.655 9.655-9.655c5.324 0 9.656 4.332 9.656 9.655 0 5.324-4.332 9.656-9.656 9.656z"/><path d="m236.826 316.363c-13.595 0-24.655 11.061-24.655 24.656s11.061 24.655 24.655 24.655c13.595 0 24.656-11.061 24.656-24.655 0-13.596-11.061-24.656-24.656-24.656zm0 34.311c-5.324 0-9.655-4.332-9.655-9.655 0-5.324 4.332-9.656 9.655-9.656 5.324 0 9.656 4.332 9.656 9.656 0 5.323-4.332 9.655-9.656 9.655z"/></g></g></svg>